<svg fill="#fff" xmlns="http://www.w3.org/2000/svg" viewBox="0 0 64 64" width="45" height="45"><path d="M32 6C17.641 6 6 17.641 6 32c0 14.359 11.641 26 26 26s26-11.641 26-26C58 17.641 46.359 6 32 6zM44.927 26.226c.012.271.017.543.017.816.0 8.34-6.189 17.958-17.51 17.958-3.476.0-6.711-1.045-9.435-2.835.482.059.973.089 1.469.089 2.884.0 5.538-1.009 7.644-2.702-2.693-.051-4.966-1.877-5.749-4.384.375.072.761.112 1.157.112.562.0 1.107-.077 1.622-.221-2.816-.579-4.937-3.13-4.937-6.188.0-.027.0-.052.0-.079.83.472 1.779.756 2.788.789-1.651-1.131-2.737-3.063-2.737-5.252.0-1.158.303-2.242.832-3.175 3.037 3.819 7.571 6.333 12.686 6.595-.104-.46-.159-.943-.159-1.438.0-3.485 2.755-6.311 6.154-6.311 1.77.0 3.369.767 4.492 1.994 1.403-.284 2.721-.809 3.909-1.532-.459 1.474-1.434 2.711-2.706 3.492C45.71 23.8 46.896 23.462 48 22.959 47.175 24.224 46.131 25.335 44.927 26.226z"/></svg>