<?xml version="1.0" standalone="no"?>
<!DOCTYPE svg PUBLIC "-//W3C//DTD SVG 20010904//EN"
 "http://www.w3.org/TR/2001/REC-SVG-20010904/DTD/svg10.dtd">
<svg version="1.0" xmlns="http://www.w3.org/2000/svg"
 width="20.000000pt" height="20.000000pt" viewBox="0 0 20.000000 20.000000"
 preserveAspectRatio="xMidYMid meet">

<g transform="translate(0.000000,20.000000) scale(0.100000,-0.100000)"
fill="#f8817f" stroke="none">
<path d="M45 155 c-50 -49 -15 -135 55 -135 41 0 80 39 80 80 0 41 -39 80 -80
80 -19 0 -40 -9 -55 -25z m88 9 c3 -4 -1 -17 -10 -31 -14 -21 -14 -26 -2 -34
18 -11 26 -11 34 0 3 6 -3 14 -12 20 -15 8 -16 12 -5 23 11 11 15 10 22 -2 13
-20 12 -61 0 -80 -9 -13 -13 -12 -30 9 -11 13 -20 19 -20 13 0 -5 7 -15 15
-22 18 -15 10 -30 -16 -30 -16 0 -18 5 -13 25 5 20 1 27 -17 34 -22 8 -22 10
-6 16 15 6 18 15 13 36 -5 25 -2 29 18 29 12 0 25 -3 29 -6z m-59 -21 c5 -11
1 -22 -10 -30 -24 -18 -39 -1 -25 26 14 25 27 27 35 4z m71 -41 c-3 -3 -11 0
-18 7 -9 10 -8 11 6 5 10 -3 15 -9 12 -12z m-57 -28 c2 -1 0 -13 -4 -26 l-8
-23 -7 25 c-6 21 -7 21 -8 5 -2 -20 -2 -20 -16 -1 -22 29 -18 37 13 30 15 -4
29 -8 30 -10z"/>
</g>
</svg>